# xmcd
#
# Track frame offsets:
#	150
#	19425
#	33600
#	57000
#	77925
#	100725
#	125100
#	140475
#	169125
#
# Disc length: 2596 seconds
#
# Revision: 0
# Processed by: cddbd v1.4PL0 Copyright (c) Steve Scherf et al.
# Submitted via: dBpowerAMP V4.0
#
DISCID=7d0a2209
DTITLE=Rod Piazza - So Glad To Have The Blues
DYEAR=1900
DGENRE=Blues
TTITLE0=How Come You Women Look So Good
TTITLE1=Harpthrob
TTITLE2=Murder(In The 1st Degree)
TTITLE3=Too Many Drivers
TTITLE4=Little Southern Lady
TTITLE5=So Glad To Have The Blues
TTITLE6=Sharp Harp
TTITLE7=Black Nites
TTITLE8=The Stinger
EXTD=
EXTT0=
EXTT1=
EXTT2=
EXTT3=
EXTT4=
EXTT5=
EXTT6=
EXTT7=
EXTT8=
PLAYORDER=
